#!OML:ASF F:\VICON\USERDATA\INSTALL\rory3\rory3.ASF
:FULLY-SPECIFIED
:DEGREES
64
root -0.2527482133368472 16.826434296640155 43.252479203764416 4.670558079735301 4.226612169254953 -0.21547521214106347
lfemur 14.4178438926372 -4.139842144567139 -26.212065931101876
ltibia 41.160813846373685
lfoot -4.828913762712769 -10.253920497780442
ltoes -21.7318670349187
rfemur -43.77102324892391 1.422040692212712 24.207271493880597
rtibia 45.156941343670255
rfoot 7.0678540626458926 -9.936442856576214
rtoes -2.2830368616204297
lowerback 14.099142758154569 -0.9761618688421632 -2.6872309785828543
upperback -1.0981802175347568 -1.568908693023738 1.9352785956256167
thorax -9.304765236417131 -0.546558096336155 4.35170888696065
lowerneck -20.695184511050797 -2.6970551239550224 -3.092758773736125
upperneck 12.621013515682659 -3.5864663477290253 3.8879474809213366
head 7.424065632265756 -1.3441070007503444 1.2946948903710014
lclavicle -2.7129167964894444e-15 1.0698401978772522e-15
lhumerus -27.39694696931957 -20.760832432827083 96.80412553525598
lradius 116.0194757476332
lwrist 36.583185625990325
lhand -26.96066562755262 0.20015982753132344
lfingers 7.12502
lthumb -0.381960884284988 30.16366013714836
rclavicle -2.7129167964894444e-15 1.0698401978772522e-15
rhumerus -63.7119131386177 2.557008698390863 -93.05036883393494
rradius 104.11807879813381
rwrist -7.474266593141385
rhand -16.208632877237918 40.285461715666735
rfingers 7.12502
rthumb 9.998694101812532 10.53045798357772
65
root -0.29733583123493273 16.891378353443315 43.985912336127214 4.341150332723652 4.085242744626363 -0.8361361821008122
lfemur 12.786216564396716 -4.405355981565994 -24.859769040776385
ltibia 48.530762290346644
lfoot 1.4371865855344979 -11.824291472135442
ltoes -22.13290634717051
rfemur -41.90289349317159 1.2923368672778692 25.660397761716784
rtibia 48.71386740530541
rfoot 8.114032827014228 -7.6307629567689
rtoes 2.369623289705198
lowerback 14.189234841753416 -0.9522916152878473 -1.8979750569707259
upperback -1.1261488546695586 -1.4257370021513447 2.318233438921192
thorax -9.362366699596365 -0.49757688201437944 4.144461029102305
lowerneck -20.432550884901115 -2.4506398364351143 -3.0302744679133653
upperneck 12.929549761310946 -3.21105914664787 3.636094176980659
head 7.4606480236524275 -1.2061608464339222 1.2440606570602255
lclavicle -2.3784792786216605e-15 1.3124187065352239e-15
lhumerus -28.774379210137383 -19.963941008108655 97.32039037808289
lradius 116.62500155398175
lwrist 36.484428833668055
lhand -27.033282852737628 0.10688988065305893
lfingers 7.12502
lthumb -0.45207983188136325 30.06918243378594
rclavicle -2.3784792786216605e-15 1.3124187065352239e-15
rhumerus -64.50553382551549 1.790272408577696 -92.20515740301319
rradius 103.22818922749266
rwrist -6.814771780475612
rhand -16.305925526579767 40.230703796499114
rfingers 7.12502
rthumb 9.904835777081583 10.474217201159977
66
root -0.3485411983733846 17.01758406289738 43.666485399283985 3.894793982798315 3.6982735985832593 -1.6680250509548786
lfemur 8.503866263085074 -4.35933139354947 -23.455745030739045
ltibia 56.156299451055894
lfoot 7.909752415489203 -13.600922887614328
ltoes -20.636974546353606
rfemur -39.98269579867568 1.1345435081120003 27.00648768217005
rtibia 50.94684080024367
rfoot 7.848118670235598 -6.280794483693349
rtoes 6.836743316149972
lowerback 14.269599790370657 -0.9282404285436423 -1.1101175698733312
upperback -1.1726631133342627 -1.2797075321147204 2.622531675579355
thorax -9.465486294321249 -0.4475846883207103 3.6714244497799053
lowerneck -20.081659135570405 -2.3078641202322876 -2.9805025874256494
upperneck 13.178488856924472 -2.993633966835015 3.3860782068459114
head 7.4693373286611235 -1.1417049105154515 1.1849019408667787
lclavicle -3.1088082321381204e-15 7.826871056746045e-16
lhumerus -31.51100376739716 -19.364018722139726 97.81413044066343
lradius 116.40959563238825
lwrist 36.13791121752796
lhand -26.907566839491167 0.09252423664557252
lfingers 7.12502
lthumb -0.3306649852770158 30.05528819792496
rclavicle -3.1088082321381204e-15 7.826871056746045e-16
rhumerus -65.05132643191251 1.2785363394117004 -91.9439334050036
rradius 102.56570238960205
rwrist -6.5416326760202415
rhand -16.381466685014257 40.13705135925124
rfingers 7.12502
rthumb 9.831956223852636 10.381455040960788
67
root -0.3876272502633804 17.225568039595014 43.96100914923942 3.5120779665992297 3.459648411613829 -2.3940996109505783
lfemur 3.9341458415725956 -3.6176943306962497 -21.633193000199128
ltibia 65.4338480337389
lfoot 14.062506231837002 -14.773074284210434
ltoes -17.351562894370335
rfemur -36.346953497722296 1.3282733651694967 28.59918536708774
rtibia 53.42659740623195
rfoot 7.223956197197466 -5.412810017614915
rtoes 11.40390861646332
lowerback 14.450955878825146 -0.7807217229871699 -0.14239044767021358
upperback -1.1115614234031042 -0.9420538945515555 2.926371545893855
thorax -9.515810390456492 -0.31844953312842417 3.261393146366052
lowerneck -19.616404052008367 -2.2386023226460368 -2.8994854549527043
upperneck 13.395744227345004 -2.9014544930073076 3.292114357589148
head 7.473317974645087 -1.1236665826801986 1.1599251239296637
lclavicle -2.6464115237150916e-15 1.1180786077904247e-15
lhumerus -33.78704165848066 -18.59678658855814 98.39370605865295
lradius 115.97449275987894
lwrist 35.729261612895314
lhand -26.50647213209688 0.3522080590299619
lfingers 7.12502
lthumb 0.05668920766964658 30.315924025890325
rclavicle -2.6464115237150916e-15 1.1180786077904247e-15
rhumerus -64.46097784687636 1.4909028846427255 -91.98570010888811
rradius 102.52759659051857
rwrist -6.44794428597423
rhand -16.280814990500108 40.18392791062677
rfingers 7.12502
rthumb 9.929090215843493 10.428025940372669
68
root -0.43241833420183523 17.426870871856362 43.22567772860434 3.130924994307972 3.0418009875426666 -3.1414703037514777
lfemur -2.316694782174025 -2.62940846122591 -20.21541098379461
ltibia 72.86683904152753
lfoot 16.70514349388844 -15.33627031086306
ltoes -14.387263686173734
rfemur -33.194200551401494 1.4552063272481583 29.759771184354992
rtibia 53.54129996766669
rfoot 5.387480290816971 -5.525984425038014
rtoes 13.54532916777568
lowerback 14.58027097328529 -0.6349715400310456 0.5782089220805409
upperback -1.0235643642476604 -0.6364910329961693 3.0579562322216605
thorax -9.57056134374143 -0.1998112023612032 2.6673861195730044
lowerneck -19.287454272650734 -2.351270213843679 -2.8511115830602423
upperneck 13.458111854234621 -3.0777357187840604 3.283589992684642
head 7.451911920046035 -1.2186903298868317 1.1417603433002723
lclavicle -3.332111383339837e-15 6.207179642110519e-16
lhumerus -36.56617174615902 -18.252276067880622 98.81514958084225
lradius 114.84420174557863
lwrist 35.02614519813244
lhand -26.146567113744315 0.49854650311026805
lfingers 7.12502
lthumb 0.40425629677649977 30.464680008869152
rclavicle -3.332111383339837e-15 6.207179642110519e-16
rhumerus -63.43145723166261 2.074504166094928 -92.78361961240488
rradius 102.73489593537967
rwrist -6.798038306190646
rhand -16.172852093667387 40.22749433518847
rfingers 7.12502
rthumb 10.033276489487463 10.472940246857847
69
root -0.45365446058494674 17.63698263545031 43.45344402926582 2.9069446846542144 2.746220143433645 -3.61578913391574
lfemur -7.541243041816289 -1.0948468550990518 -18.717392391950522
ltibia 80.40483638764468
lfoot 16.68424350243784 -14.756127923215049
ltoes -12.310267548555537
rfemur -28.73170607749723 1.8495583876883188 31.035458597602958
rtibia 54.39475834838845
rfoot 3.9780697129289866 -5.5197217908804665
rtoes 14.945723935146653
lowerback 14.75844978828592 -0.34850561541597647 1.3725906129050522
upperback -0.8415101094351056 -0.13111390035622938 3.1539606066173658
thorax -9.545435692868992 0.0035948766652047492 2.224513961656298
lowerneck -18.95794670183526 -2.4868265807992644 -2.7754515870555956
upperneck 13.502793789873273 -3.295694820269124 3.4215015518482264
head 7.443870739249743 -1.3214798438122226 1.1576670755418101
lclavicle -2.5610053778627835e-15 1.180026488419472e-15
lhumerus -38.366455458438274 -17.59338634367091 99.21896619845101
lradius 113.83266009150753
lwrist 34.38702879757684
lhand -25.777651389094476 0.7478160435832113
lfingers 7.12502
lthumb 0.7605266499877972 30.716329604515966
rclavicle -2.5610053778627835e-15 1.180026488419472e-15
rhumerus -61.30536132761186 3.307197899941773 -93.68376477079286
rradius 103.49455206751459
rwrist -7.1654478290189445
rhand -15.966048661693005 40.36359139061435
rfingers 7.12502
rthumb 10.232839404929614 10.608726106269717
